<?xml version="1.0" encoding="utf-8"?>
<!-- Generator: Adobe Illustrator 15.0.0, SVG Export Plug-In . SVG Version: 6.00 Build 0)  -->
<svg version="1.2" xmlns:xlink="http://www.w3.org/1999/xlink" width="56.69px" height="56.69px" viewBox="0 0 56.69 56.69" baseProfile="tiny-ps" xmlns="http://www.w3.org/2000/svg">
  <title>Pulent.com</title>
<g>
	<rect x="-0.001" width="56.694" height="56.693" />
	<g>
		<path fill="#FFFFFF" d="M3.188,17.665h7.731c3.619,0,6.181,2.327,6.181,5.64c0,3.313-2.562,5.64-6.181,5.64H7.747v4.866H3.188    V17.665z M10.544,24.81c1.08,0,1.855-0.634,1.855-1.504c0-0.87-0.775-1.504-1.855-1.504H7.747v3.009H10.544z" />
		<path fill="#FFFFFF" d="M18.796,26.643v-8.978h4.559v8.742c0,2.068,1.293,3.55,3.125,3.55c1.834,0,3.126-1.481,3.126-3.55v-8.742    h4.559v8.978c0,4.371-3.172,7.449-7.685,7.449C21.968,34.092,18.796,31.014,18.796,26.643z" />
		<path fill="#FFFFFF" d="M48.902,29.745v4.066H36.823V17.665h4.56v12.08H48.902z" />
		<path fill="#FFFFFF" d="M7.747,41.124v1.809h7.684v4.066H7.747v2.138h8.436v4.065H3.188V37.058h12.995v4.066H7.747z" />
		<path fill="#FFFFFF" d="M18.489,37.058h4.559l6.298,8.647v-8.647h4.561v16.145h-4.561l-6.298-8.646v8.646h-4.559V37.058z" />
		<path fill="#FFFFFF" d="M40.631,41.124h-4.771v-4.066H49.96v4.066h-4.771v12.078h-4.558V41.124z" />
	</g>
</g>
</svg>